<svg xmlns="http://www.w3.org/2000/svg" viewBox="0 0 760 300" width="760" height="300" font-family="Arial, Helvetica, sans-serif" font-size="14">
<rect width="100%" height="100%" fill="#fff"/>
<rect x="40.0" y="110" width="226.7" height="50" fill="#fff" stroke="#000" stroke-width="2"/>
<text x="153.3" y="132.0" font-size="18" text-anchor="middle" font-weight="bold" fill="#000">HF</text>
<text x="153.3" y="152.0" font-size="13" text-anchor="middle" font-weight="normal" fill="#000">3–30 MHz</text>
<rect x="266.7" y="110" width="226.7" height="50" fill="#fff" stroke="#000" stroke-width="2"/>
<text x="380.0" y="132.0" font-size="18" text-anchor="middle" font-weight="bold" fill="#000">VHF</text>
<text x="380.0" y="152.0" font-size="13" text-anchor="middle" font-weight="normal" fill="#000">30–300 MHz</text>
<rect x="493.3" y="110" width="226.7" height="50" fill="#fff" stroke="#000" stroke-width="2"/>
<text x="606.7" y="132.0" font-size="18" text-anchor="middle" font-weight="bold" fill="#000">UHF</text>
<text x="606.7" y="152.0" font-size="13" text-anchor="middle" font-weight="normal" fill="#000">300–3000 MHz</text>
<text x="40.0" y="182.0" font-size="12" text-anchor="middle" font-weight="normal" fill="#000">3 MHz</text>
<text x="266.7" y="182.0" font-size="12" text-anchor="middle" font-weight="normal" fill="#000">30 MHz</text>
<text x="493.3" y="182.0" font-size="12" text-anchor="middle" font-weight="normal" fill="#000">300 MHz</text>
<text x="720.0" y="182.0" font-size="12" text-anchor="middle" font-weight="normal" fill="#000">3000 MHz</text>
<rect x="53.9" y="92" width="6.1" height="14" fill="#000"/>
<text x="56.9" y="84.0" font-size="12" text-anchor="middle" font-weight="normal" fill="#000">80 m</text>
<rect x="121.8" y="92" width="5.4" height="14" fill="#000"/>
<text x="124.5" y="70.0" font-size="12" text-anchor="middle" font-weight="normal" fill="#000">40 m</text>
<rect x="229.7" y="92" width="4.8" height="14" fill="#000"/>
<text x="232.1" y="84.0" font-size="12" text-anchor="middle" font-weight="normal" fill="#000">15 m</text>
<rect x="257.9" y="92" width="5.7" height="14" fill="#000"/>
<text x="260.7" y="70.0" font-size="12" text-anchor="middle" font-weight="normal" fill="#000">10 m</text>
<rect x="315.0" y="92" width="11.6" height="14" fill="#000"/>
<text x="320.7" y="84.0" font-size="12" text-anchor="middle" font-weight="normal" fill="#000">6 m</text>
<rect x="419.1" y="92" width="6.7" height="14" fill="#000"/>
<text x="422.4" y="70.0" font-size="12" text-anchor="middle" font-weight="normal" fill="#000">2 m</text>
<rect x="461.7" y="92" width="5.3" height="14" fill="#000"/>
<text x="464.4" y="84.0" font-size="12" text-anchor="middle" font-weight="normal" fill="#000">1.25 m</text>
<rect x="524.5" y="92" width="10.8" height="14" fill="#000"/>
<text x="529.9" y="70.0" font-size="12" text-anchor="middle" font-weight="normal" fill="#000">70 cm</text>
<rect x="599.7" y="92" width="6.8" height="14" fill="#000"/>
<text x="603.1" y="84.0" font-size="12" text-anchor="middle" font-weight="normal" fill="#000">33 cm</text>
<rect x="631.0" y="92" width="8.7" height="14" fill="#000"/>
<text x="635.4" y="70.0" font-size="12" text-anchor="middle" font-weight="normal" fill="#000">23 cm</text>
<rect x="693.8" y="92" width="6.2" height="14" fill="#000"/>
<text x="697.0" y="84.0" font-size="12" text-anchor="middle" font-weight="normal" fill="#000">13 cm</text>
<text x="40.0" y="30.0" font-size="14" text-anchor="start" font-weight="bold" fill="#000">Technician bands on the HF / VHF / UHF spectrum (log scale, US = ITU Region 2)</text>
<text x="40.0" y="215.0" font-size="12" text-anchor="start" font-weight="normal" fill="#000">Black marks: Technician segments and bands. HF segments are limited (see band chart);</text>
<text x="40.0" y="232.0" font-size="12" text-anchor="start" font-weight="normal" fill="#000">every amateur band above 30 MHz is open to Technicians (6 m and up; higher bands not shown).</text>
<text x="40.0" y="262.0" font-size="12" text-anchor="start" font-weight="normal" fill="#000">Sources: 47 CFR 97.3(b), 97.301(a) and (e), eCFR as of 2026-09-22.</text>
</svg>
